<?xml version="1.0" encoding="utf-8"?>
<!-- Generator: Adobe Illustrator 21.1.0, SVG Export Plug-In . SVG Version: 6.00 Build 0)  -->
<svg version="1.1" id="Layer_1" xmlns="http://www.w3.org/2000/svg" xmlns:xlink="http://www.w3.org/1999/xlink" x="0px" y="0px"
	 viewBox="0 0 70 70" style="enable-background:new 0 0 70 70;" xml:space="preserve">
<path d="M49.8,38.5c-2.9,0-6.6,0.5-7.7,0.7c-4.9-5.1-6.3-8.1-6.7-8.9c0.4-1.1,1.9-5.3,2.1-10.6c0.1-2.7-0.5-4.7-1.7-6
	s-2.7-1.4-3.1-1.4c-1.5,0-4,0.8-4,5.8c0,4.4,2,9,2.6,10.2c-3,8.6-6.1,14.5-6.8,15.8c-11.9,4.5-12.8,8.8-12.8,10.1
	c0,2.2,1.6,3.5,4.2,3.5c6.4,0,12.2-10.7,13.2-12.6c4.5-1.8,10.6-2.9,12.2-3.2c4.4,4.2,9.6,5.4,11.7,5.4c1.6,0,5.4,0,5.4-3.9
	C58.3,39.8,53.7,38.5,49.8,38.5z M49.5,41c3.5,0,4.4,1.1,4.4,1.7c0,0.4-0.1,1.6-2,1.6c-1.7,0-4.5-1-7.4-3C45.7,41.2,47.4,41,49.5,41
	z M32.5,14.8c0.3,0,0.5,0.1,0.7,0.3c1,1.4,0.2,5.9-0.8,9.4c-0.9-3-1.6-7.7-0.7-9.3C32,14.9,32.2,14.8,32.5,14.8z M30.9,41.8
	c1.3-2.5,2.7-6.2,3.4-8.3c1.5,2.6,3.6,4.9,4.8,6.2C35.4,40.5,32.5,41.3,30.9,41.8z M14.2,54.5c-0.1-0.1-0.1-0.3,0-0.6
	c0.1-0.5,1.1-3.1,8.3-6.3c-1,1.6-2.6,3.9-4.4,5.7c-1.2,1.2-2.2,1.8-2.9,1.8C14.9,55,14.6,55,14.2,54.5z"/>
<path d="M72,72c-24,0-48,0-72,0C0,48,0,24,0,0c24,0,48,0,72,0C72,24,72,48,72,72z M5.6,66.4c20.4,0,40.7,0,61.1,0
	c0-20.2,0-40.4,0-60.7c-20.4,0-40.7,0-61.1,0C5.6,25.9,5.6,46.1,5.6,66.4z"/>
</svg>
