<?xml version="1.0" encoding="utf-8"?>
<!-- Generator: Adobe Illustrator 21.1.0, SVG Export Plug-In . SVG Version: 6.00 Build 0)  -->
<svg version="1.1" id="Layer_1" xmlns="http://www.w3.org/2000/svg" xmlns:xlink="http://www.w3.org/1999/xlink" x="0px" y="0px"
	 viewBox="0 0 72 72" style="enable-background:new 0 0 72 72;" xml:space="preserve">
<g>
	<g>
		<path d="M68.5,0.2c-0.5,4.3-0.9,8.5-1.4,12.8c-0.6,5.3-1.2,10.7-1.8,16c-0.6,5.8-1.3,11.7-1.9,17.5c-0.6,5.3-1.2,10.7-1.8,16
			c0,0.3-0.1,0.5-0.1,0.8c0.2,1.5-0.7,2-2,2.4c-7.6,2.1-15.2,4.3-22.8,6.4c-0.5,0.1-1,0.1-1.5,0c-7.9-2.2-15.9-4.5-23.8-6.8
			c-0.5-0.2-0.8-0.4-0.8-1C9.6,54.2,8.4,44.2,7.3,34.1C6.4,25.7,5.5,17.3,4.5,9C4.2,6,3.9,3.1,3.5,0.2C25.2,0.2,46.8,0.2,68.5,0.2z
			 M20,42c0.2,3.5,0.4,6.9,0.6,10.3c0,0.2,0.4,0.5,0.6,0.6c4.8,1.6,9.7,3.2,14.5,4.8c0.3,0.1,0.6,0.1,0.9,0
			c4.9-1.6,9.7-3.2,14.6-4.8c0.3-0.1,0.5-0.5,0.6-0.7c0.2-2.7,0.4-5.4,0.5-8.1c0.5-8,1-16.1,1.5-24.1c0.1-1.8,0.2-3.5,0.3-5.3
			c-12.1,0-24,0-36.1,0c0.2,2.6,0.4,5.2,0.6,7.8c9.1,0,18.1,0,27.2,0c-0.2,2.7-0.4,5.2-0.6,7.8c-6.1,0-12.1,0-18.1,0
			c0.1,2.6,0.3,5.2,0.4,7.8c5.8,0,11.6,0,17.3,0c-0.2,2.8-0.3,5.5-0.6,8.3c0,0.3-0.4,0.6-0.6,0.7c-2.3,0.8-4.6,1.6-7,2.4
			c-0.3,0.1-0.8,0.1-1.1,0c-2.2-0.7-4.5-1.5-6.7-2.2C28.2,47,28,46.6,28,46.1c0-1.3-0.1-2.7-0.2-4.1C25.2,42,22.6,42,20,42z"/>
	</g>
</g>
</svg>
