<?xml version="1.0" encoding="utf-8"?>
<!-- Generator: Adobe Illustrator 21.1.0, SVG Export Plug-In . SVG Version: 6.00 Build 0)  -->
<svg version="1.1" id="Layer_1" xmlns="http://www.w3.org/2000/svg" xmlns:xlink="http://www.w3.org/1999/xlink" x="0px" y="0px"
	 viewBox="0 0 216 43" style="enable-background:new 0 0 216 43;" xml:space="preserve">
<style type="text/css">
	.st0{fill:none;}
	.st1{fill:#1A68A9;}
</style>
<g>
	<path class="st0" d="M120.9,20.8H97.7c0,0.2,0,0.3,0,0.5s0,0.3,0,0.5h23.2c0-0.2,0-0.3,0-0.5S120.9,20.9,120.9,20.8z"/>
	<path class="st0" d="M119.5,15.7H99.1c-0.8,1.5-1.3,3.2-1.4,5.1h23.2C120.8,18.9,120.3,17.2,119.5,15.7z"/>
	<path class="st0" d="M109.3,9.6c-4,0-7.5,2-9.6,5.1h19.1C116.8,11.6,113.3,9.6,109.3,9.6z"/>
	<path class="st0" d="M109.3,32.9c4,0,7.6-2.1,9.7-5.2H99.6C101.7,30.8,105.3,32.9,109.3,32.9z"/>
	<path class="st0" d="M99,26.7h20.5c0.8-1.5,1.3-3.2,1.4-4.9H97.7C97.8,23.5,98.3,25.2,99,26.7z"/>
	<path class="st1" d="M92.7,20.8H37.3v1h55.4c0-0.2,0-0.3,0-0.5S92.7,20.9,92.7,20.8z"/>
	<path class="st1" d="M125.9,21.8h52.8v-1h-52.8c0,0.2,0,0.3,0,0.5S125.9,21.6,125.9,21.8z"/>
	<path class="st1" d="M120.9,21.8c-0.1,1.8-0.6,3.5-1.4,4.9h5.4c0.5-1.6,0.9-3.2,0.9-4.9H120.9z"/>
	<path class="st1" d="M97.7,21.8h-5c0.1,1.7,0.4,3.4,0.9,4.9H99C98.3,25.2,97.8,23.5,97.7,21.8z"/>
	<path class="st1" d="M109.3,32.9c-4,0-7.6-2.1-9.7-5.2H94c2.5,6,8.4,10.2,15.3,10.2s12.8-4.2,15.3-10.2h-5.6
		C116.9,30.8,113.3,32.9,109.3,32.9z"/>
	<path class="st1" d="M120.9,20.8h5c-0.1-1.8-0.4-3.5-1-5.1h-5.5C120.3,17.2,120.8,18.9,120.9,20.8z"/>
	<path class="st1" d="M99.1,15.7h-5.5c-0.6,1.6-0.9,3.3-1,5.1h5C97.8,18.9,98.3,17.2,99.1,15.7z"/>
	<path class="st1" d="M109.3,9.6c4,0,7.5,2,9.6,5.1h5.7c-2.5-5.9-8.4-10.1-15.2-10.1S96.6,8.8,94,14.7h5.7
		C101.8,11.6,105.3,9.6,109.3,9.6z"/>
	<path class="st1" d="M97.7,21.3c0-0.2,0-0.3,0-0.5h-5c0,0.2,0,0.3,0,0.5s0,0.3,0,0.5h5C97.7,21.6,97.7,21.4,97.7,21.3z"/>
	<path class="st1" d="M120.9,21.3c0,0.2,0,0.3,0,0.5h5c0-0.2,0-0.3,0-0.5s0-0.3,0-0.5h-5C120.9,20.9,120.9,21.1,120.9,21.3z"/>
	<path class="st1" d="M73.1,14.7v1h20.5c0.1-0.3,0.3-0.7,0.4-1H73.1z"/>
	<path class="st1" d="M142.9,15.7v-1h-18.3c0.1,0.3,0.3,0.7,0.4,1H142.9z"/>
	<path class="st1" d="M119.5,15.7h5.5c-0.1-0.3-0.3-0.7-0.4-1h-5.7C119.1,15,119.3,15.3,119.5,15.7z"/>
	<path class="st1" d="M99.7,14.7H94c-0.1,0.3-0.3,0.7-0.4,1h5.5C99.3,15.3,99.5,15,99.7,14.7z"/>
	<path class="st1" d="M74.1,26.7v1H94c-0.1-0.3-0.3-0.7-0.4-1H74.1z"/>
	<path class="st1" d="M143.9,27.7v-1H125c-0.1,0.3-0.3,0.7-0.4,1H143.9z"/>
	<path class="st1" d="M118.9,27.7h5.6c0.1-0.3,0.3-0.7,0.4-1h-5.4C119.4,27,119.2,27.4,118.9,27.7z"/>
	<path class="st1" d="M99,26.7h-5.4c0.1,0.3,0.3,0.7,0.4,1h5.6C99.4,27.4,99.2,27,99,26.7z"/>
</g>
</svg>
