<?xml version="1.0" encoding="utf-8"?>
<!-- Generator: Adobe Illustrator 21.1.0, SVG Export Plug-In . SVG Version: 6.00 Build 0)  -->
<svg version="1.1" id="Layer_1" xmlns="http://www.w3.org/2000/svg" xmlns:xlink="http://www.w3.org/1999/xlink" x="0px" y="0px"
	 viewBox="0 0 72 72" style="enable-background:new 0 0 72 72;" xml:space="preserve">
<g>
	<g>
		<path d="M39.2,26.9c0.2,0.3,0.2,0.7,0.5,0.9c2,2.1,4.1,4.1,6.1,6.1c0.4,0.4,0.4,0.6,0.3,1.1c-0.8,3.1,1,6.2,4.1,6.8
			c3.1,0.7,6.1-1.4,6.6-4.5c0.5-3.2-1.8-6.1-5-6.4c-0.3,0-0.7-0.1-1,0.1c-0.9,0.3-1.5,0-2.2-0.7c-2.1-2.2-4.3-4.3-6.5-6.5
			c-0.2-0.2-0.4-0.8-0.3-1.1c0.7-4-2.5-7.3-6.5-6.6c-0.3,0.1-0.8,0-1-0.2c-2.6-2.5-5.1-5-7.6-7.6c-0.1-0.1-0.1-0.2-0.2-0.3
			c2.3-2.3,4.5-4.7,6.9-7c1.6-1.5,4.1-1.3,5.8,0c0.2,0.2,0.5,0.4,0.7,0.6C50,12.1,60.3,22.4,70.6,32.7c1.7,1.7,2.1,3.6,1.3,5.5
			c-0.3,0.6-0.7,1.1-1.1,1.6c-10.3,10.3-20.6,20.7-31,31c-2.1,2.1-4.9,2.1-6.9,0C22.6,60.4,12.3,50.2,2,39.9c-2.5-2.5-2.5-5.1,0-7.6
			c6.8-6.8,13.5-13.5,20.3-20.3c0.2-0.2,0.4-0.5,0.8-1c0.8,0.9,1.5,1.7,2.2,2.4c1.8,1.8,3.6,3.6,5.4,5.4c0.4,0.4,0.5,0.7,0.4,1.3
			c-0.7,2.5,0.3,4.9,2.6,6.3c0.3,0.2,0.6,0.7,0.6,1c0,6.1,0,12.2,0,18.3c0,0.5-0.2,0.8-0.6,1.1c-2.2,1.3-3.2,3.7-2.6,6.2
			c0.6,2.2,2.7,3.9,5,4c2.6,0.1,4.7-1.4,5.5-3.7c0.8-2.4-0.1-4.8-2.2-6.3c-0.3-0.2-0.5-0.6-0.5-0.8c0-6.2,0-12.4,0-18.6
			c0-0.1,0-0.2,0.1-0.2C39,27.2,39.1,27.1,39.2,26.9z"/>
	</g>
</g>
</svg>
