<?xml version="1.0" encoding="utf-8"?>
<!-- Generator: Adobe Illustrator 21.1.0, SVG Export Plug-In . SVG Version: 6.00 Build 0)  -->
<svg version="1.1" id="Layer_1" xmlns="http://www.w3.org/2000/svg" xmlns:xlink="http://www.w3.org/1999/xlink" x="0px" y="0px"
	 viewBox="0 0 72 72" style="enable-background:new 0 0 72 72;" xml:space="preserve">
<style type="text/css">
	.st0{fill:#1C67A8;}
</style>
<path class="st0" d="M72,72c-24,0-48,0-72,0C0,48,0,24,0,0c24,0,48,0,72,0C72,24,72,48,72,72z M5.6,66.4c20.4,0,40.7,0,61.1,0
	c0-20.2,0-40.4,0-60.7c-20.4,0-40.7,0-61.1,0C5.6,25.9,5.6,46.1,5.6,66.4z"/>
<g>
	<g>
		<path class="st0" d="M31.6,41.5c-1.5,0-3.1,0-4.6,0c-0.3,0-0.5,0.1-0.6,0.4c-0.7,2.4-1.5,4.7-2.2,7.1c-0.1,0.5-0.4,0.7-0.9,0.6
			c-1.3,0-2.6,0-3.9,0c-0.6,0-0.7-0.1-0.5-0.7c2.2-6.6,4.3-13.3,6.5-19.9c0.8-2.5,1.6-4.9,2.4-7.4c0.2-0.6,0.2-1.4,0.3-2
			c0-0.3,0.2-0.4,0.5-0.4c2,0,4,0,6,0c0.3,0,0.4,0.2,0.5,0.5c1.6,4.8,3.2,9.7,4.9,14.5c1.7,4.9,3.3,9.9,5,14.8
			c0.2,0.7,0.2,0.8-0.5,0.8c-1.4,0-2.9,0-4.3,0c-0.5,0-0.7-0.2-0.9-0.6c-0.7-2.4-1.5-4.7-2.3-7.1c-0.1-0.4-0.3-0.5-0.7-0.5
			C34.7,41.5,33.1,41.5,31.6,41.5z M35.3,36.6c-1.3-4.2-2.5-8.4-3.8-12.6c-1.2,4.1-2.4,8.3-3.7,12.6C30.4,36.6,32.8,36.6,35.3,36.6z
			"/>
		<path class="st0" d="M52.9,38.9c0,3.4,0,6.8,0,10.2c0,0.5-0.1,0.7-0.7,0.7c-1.3,0-2.6,0-3.9,0c-0.5,0-0.6-0.2-0.6-0.7
			c0-6.8,0-13.6,0-20.5c0-0.4,0.1-0.6,0.6-0.6c1.3,0,2.7,0,4,0c0.4,0,0.6,0.1,0.6,0.6C52.9,32,52.9,35.4,52.9,38.9z"/>
		<path class="st0" d="M50.4,19.2c1.8,0,2.9,1.2,2.9,2.9c0,1.8-1.2,2.9-3.1,2.9c-1.7,0-2.8-1.2-2.8-3C47.5,20.4,48.7,19.2,50.4,19.2
			z"/>
	</g>
</g>
</svg>
