<?xml version="1.0" encoding="utf-8"?>
<!-- Generator: Adobe Illustrator 21.1.0, SVG Export Plug-In . SVG Version: 6.00 Build 0)  -->
<svg version="1.1" id="Layer_1" xmlns="http://www.w3.org/2000/svg" xmlns:xlink="http://www.w3.org/1999/xlink" x="0px" y="0px"
	 viewBox="0 0 72 72" style="enable-background:new 0 0 72 72;" xml:space="preserve">
<style type="text/css">
	.st0{fill:#1C67A8;}
</style>
<g>
	<g>
		<path class="st0" d="M72,72c-24,0-48,0-72,0C0,48,0,24,0,0c24,0,48,0,72,0C72,24,72,48,72,72z M5.6,66.4c20.4,0,40.7,0,61.1,0
			c0-20.2,0-40.4,0-60.7c-20.4,0-40.7,0-61.1,0C5.6,25.9,5.6,46.1,5.6,66.4z"/>
		<path class="st0" d="M44.3,25.7c0-0.1,0-0.2,0-0.2c0-2.3,0-4.5,0-6.8c0-0.3,0.1-0.3,0.3-0.3c1.9,0,3.7,0,5.6,0
			c0.3,0,0.4,0.1,0.4,0.4c0,5.6,0,11.3,0,16.9c0,3.5,0,7,0,10.6c0,0.5,0.1,1,0.2,1.5c0,0.3,0.1,0.5,0.1,0.8c0,0.2-0.1,0.3-0.2,0.4
			c-0.9,0.5-1.8,0.9-2.8,1.2c-0.8,0.2-1.6,0.4-2.4,0.5c-0.5,0.1-1.1,0.2-1.6,0.2C43.2,51,42.5,51,41.8,51c-0.8,0-1.5-0.1-2.3-0.2
			c-1.1-0.1-2.2-0.4-3.2-0.9c-0.7-0.3-1.3-0.8-1.8-1.4c-1.2-1.2-2.1-2.6-2.8-4.2c-0.4-1-0.7-2-0.9-3c-0.1-0.6-0.2-1.3-0.2-1.9
			c0-0.6,0-1.2,0-1.8c0.2-2.1,0.7-4,1.7-5.8c0.6-1.1,1.4-2.1,2.3-3c1.4-1.4,3.1-2.4,5-2.8c0.6-0.1,1.2-0.2,1.8-0.3
			c0.4,0,0.9-0.1,1.3,0c0.5,0,1,0.1,1.5,0.2C44.1,25.7,44.2,25.7,44.3,25.7z M44.3,45.6c0-0.1,0-0.1,0-0.2c0-4.8,0-9.6,0-14.5
			c0-0.2-0.1-0.2-0.2-0.2c-0.4-0.1-0.8-0.2-1.3-0.2c-0.7-0.1-1.3-0.1-2,0.1c-1.2,0.3-2.1,1-2.7,2.1c-0.9,1.5-1.2,3.1-1.3,4.8
			c0,0.8,0,1.6,0.1,2.4c0.1,0.7,0.2,1.3,0.4,2c0.3,1.1,0.8,2.1,1.7,2.9c0.8,0.7,1.6,1,2.6,1.1c0.5,0,0.9,0,1.4,0
			C43.5,45.8,43.9,45.7,44.3,45.6z"/>
		<path class="st0" d="M27.6,34.5c0,5.2,0,10.4,0,15.7c0,0.3-0.1,0.4-0.4,0.4c-1.9,0-3.8,0-5.6,0c-0.3,0-0.3-0.1-0.3-0.3
			c0-10.5,0-21,0-31.4c0-0.3,0.1-0.3,0.3-0.3c1.9,0,3.7,0,5.6,0c0.3,0,0.3,0.1,0.3,0.4C27.7,24,27.7,29.2,27.6,34.5z"/>
	</g>
</g>
</svg>
