<?xml version="1.0" encoding="utf-8"?>
<!-- Generator: Adobe Illustrator 21.1.0, SVG Export Plug-In . SVG Version: 6.00 Build 0)  -->
<svg version="1.1" id="Layer_1" xmlns="http://www.w3.org/2000/svg" xmlns:xlink="http://www.w3.org/1999/xlink" x="0px" y="0px"
	 viewBox="0 0 72 72" style="enable-background:new 0 0 72 72;" xml:space="preserve">
<style type="text/css">
	.st0{fill:#1C67A8;}
</style>
<g>
	<g>
		<path class="st0" d="M38,50.2c1.1,0.4,2.1,0.9,3.1,1.3c3.4,1.3,6.8,2,10.4,1.9c1.6,0,3.2-0.3,4.7-0.9c3.9-1.6,4.4-6.6,1.2-9
			c-1.9-1.4-4-2.3-6.2-3c-3.3-1.2-6.4-2.6-9.2-4.7c-8.6-6.4-7.1-18.4,1.1-23.5c3.2-2,6.7-3,10.3-3.3c4.9-0.4,9.6,0,14.3,1.8
			c0.6,0.2,1.2,0.5,1.8,0.7c-0.9,3.2-1.7,6.3-2.6,9.5c-0.3-0.1-0.5-0.2-0.7-0.3c-3.8-1.7-7.8-2.4-11.9-2.1c-1.5,0.1-2.8,0.6-4.1,1.4
			c-2.4,1.7-2.6,4.9-0.4,6.8c0.9,0.8,2,1.5,3.1,2c2.3,1.1,4.7,2,7.1,3c2.4,1,4.6,2.2,6.6,3.9c4,3.4,5.4,7.8,4.8,12.8
			c-0.8,7-5.1,11.2-11.6,13.1c-7.9,2.4-15.7,1.7-23.4-1.4c-1-0.4-1-0.4-0.7-1.5C36.5,56,37.2,53.1,38,50.2z"/>
		<path class="st0" d="M0.3,61.9c0.4-3.2,0.9-6.3,1.3-9.5C2.8,52.6,3.9,52.9,5,53c1.7,0.2,3.5,0.3,5.2,0c2.2-0.5,3.8-1.7,4.6-3.8
			c0.8-1.9,1-3.8,1-5.8c0-10.9,0-21.7,0-32.6c0-0.3,0-0.6,0-0.9c3.9,0,7.8,0,11.8,0c0,0.1,0.1,0.3,0.1,0.4c0,11.6,0,23.2-0.1,34.8
			c0,3.9-0.8,7.6-2.9,11c-2.1,3.5-5.4,5.5-9.3,6.4c-4.9,1.1-9.7,0.9-14.5-0.4C0.7,62,0.6,61.9,0.3,61.9z"/>
	</g>
</g>
</svg>
