<?xml version="1.0" encoding="utf-8"?>
<!-- Generator: Adobe Illustrator 21.1.0, SVG Export Plug-In . SVG Version: 6.00 Build 0)  -->
<svg version="1.1" id="Layer_1" xmlns="http://www.w3.org/2000/svg" xmlns:xlink="http://www.w3.org/1999/xlink" x="0px" y="0px"
	 viewBox="0 0 72 72" style="enable-background:new 0 0 72 72;" xml:space="preserve">
<style type="text/css">
	.st0{fill:#1C67A8;}
</style>
<g>
	<g>
		<path class="st0" d="M72.1,46.3c-0.2-1.9-1.3-3.4-2.9-4.6c0.4,0.3,0.7,0.5,0,0c-1-0.7-0.5-0.3,0,0c-4-2.9-9.2-2.2-13.6-0.6
			c-1.7-2.9-1.8-5-0.8-8.1c0.1-0.4,0-0.6-0.4-0.8c-1-0.4-2.4-0.2-3.4,0.1c-0.3,0.1-0.6,0.3-0.7,0.6c-0.7,3.4-3,6.5-4.9,9.4
			c-1.4-2.6-1.3-4.7-0.3-7.4c0.1-0.3,0.1-0.5-0.3-0.7c-1-0.5-2.6-0.3-3.6,0c-1.2,0.4-3,6.3-3.6,7.4c-1.2,2.5-2.3,6.3-4.3,8.2
			c-1.7-2.2,3.2-7.2,1.5-9.3c-0.6-0.7-1.6-0.7-2.2-0.1c0.2-1.1,0.2-1.8,0-2.7c-0.3-1-1-1.5-2.1-1.5c-2.5,0.1-4.8,1.9-6.3,3.7
			c-1.4,1.7-5.3,2.8-7.3,3.8c-3.5-3.1-11.1-6.3-11.3-11.5C5.3,26.4,12.3,22.4,17,20c6.1-3.1,15.5-7,22.4-3.6
			c1.8,0.9,2.6,2.8,2.1,4.7c-1.3,4.8-6.6,8.1-11.3,9.5c-2.3,0.7-4.8,1.3-7.2,1.1c-3.2-0.2-5.7-2.1-6.1-2.3c-0.3-0.1-0.3,0.3-0.2,0.5
			c3.3,8.8,20.3,2.4,24.7-2.2c2.1-2.2,3.4-4.3,4-7.6c0.6-3.9-2.2-6.3-4.4-7.3C30.1,8,15,14.6,6.7,21.4c-3.6,2.9-8.1,7.6-6,12.5
			c2.2,5.3,9.1,8,13.6,11.3c-3.6,1.8-8.1,3.7-10.5,7c-1.3,1.9-1.8,4-0.8,6.2c1.8,3.9,8.2,2.2,10.9,0.5c2.5-1.6,4.2-3.7,4.9-6.4
			c0.6-2.3,0.5-4.8-0.5-7l4-2c-1.1,3.2-1.6,7.3,0.7,10.2c0.9,1.2,3.2,1.2,4.2,0c1.2-1.5,2.1-3.5,2.9-5.2c-0.1,1.3-0.3,2.8,0.2,4
			c0.5,1.3,1.7,1.6,2.9,0.7c3.7-2.6,6.1-9.7,7.9-13.8c0.5,1.8,1.1,3.5,2,5.1c0.2,0.4,0.2,0.7-0.1,1c-1.4,1.5-4.6,4-4.9,6
			c-0.1,0.5,0.2,0.9,0.8,1c2.2,0.4,4.6-0.4,6.4-1.6c1.9-1.3,2.5-3,2-5c-0.6-2.9,1.5-6.2,3.6-8.6c0.4,1.8,1,3.6,2,5.2
			c-1.8,1.6-4.6,3.9-4.2,6.6c0.1,1,1,1.6,2,1.4c2.2-0.5,4.1-1.4,5.5-3.1c1.3-1.5,0.8-3.2,0.3-4.9c3.4-1,6.8-1.2,10.1,0
			c1.6,0.6,2.9,1.5,3.7,2.9c0.9,1.8,0.4,3.4-1.4,4.6c-0.5,0.3-0.8,0.5-0.6,0.7c0.2,0.1,0.7,0.3,1.9-0.4c1.2-0.7,1.9-1.7,2.1-3.1
			C72.1,47,72.1,46.6,72.1,46.3z M16,49.8c-0.2,2.3-1.4,4.2-3.3,5.8c-1.1,0.9-2.4,1.6-3.7,1.7c-1.3,0.1-2.4-0.2-2.4-1.6
			c-0.2-3.9,5.8-7.7,9.1-8.8C15.9,47.9,16.1,48.9,16,49.8L16,49.8z M30.5,39.6c-0.6,3.1-2.1,8.8-4.5,11c-0.3,0.3-0.6,0.3-0.8-0.1
			c-1.5-3.4,0.5-10.4,4.7-11.4C30.3,39,30.6,39.2,30.5,39.6z M40.4,51.1c1.2-1.3,2.4-2.5,3.6-3.8C44.1,48.8,41.5,51.6,40.4,51.1z
			 M51.7,48.6c-0.3,0.2-1.1,0.4-1.1,0.1c-0.2-1.7,1.7-3.5,2.8-4.3C54.1,46,53.3,47.8,51.7,48.6z"/>
	</g>
</g>
</svg>
