<?xml version="1.0" encoding="utf-8"?>
<!-- Generator: Adobe Illustrator 21.1.0, SVG Export Plug-In . SVG Version: 6.00 Build 0)  -->
<svg version="1.1" id="Layer_1" xmlns="http://www.w3.org/2000/svg" xmlns:xlink="http://www.w3.org/1999/xlink" x="0px" y="0px"
	 viewBox="0 0 72 72" style="enable-background:new 0 0 72 72;" xml:space="preserve">
<path d="M72,72c-24,0-48,0-72,0C0,48,0,24,0,0c24,0,48,0,72,0C72,24,72,48,72,72z M5.6,66.4c20.4,0,40.7,0,61.1,0
	c0-20.2,0-40.4,0-60.7c-20.4,0-40.7,0-61.1,0C5.6,25.9,5.6,46.1,5.6,66.4z"/>
<g>
	<g>
		<path d="M24.3,39.3c0,3.7,0,7.4,0,11.1c-2.4,0-4.7,0-7,0c0-0.2,0-0.3,0-0.5c0-9.9,0-19.9,0-29.8c0-0.4,0.1-0.6,0.5-0.6
			c3.4-0.5,6.8-0.6,10.3-0.5c2.1,0.1,4.2,0.4,6.1,1.2c2.9,1.2,4.7,3.4,5.3,6.4c0.6,2.7,0.2,5.4-1.3,7.8c-1.1,1.9-2.8,3.1-4.8,3.8
			c-2.8,1.1-5.8,1.3-8.8,1.1c-0.1,0-0.1,0-0.2,0C24.5,39.3,24.5,39.3,24.3,39.3z M24.3,33.8c2,0.3,3.9,0.3,5.7-0.5
			c2-0.9,2.9-2.7,2.7-5.2c-0.2-1.8-1.6-3.2-3.6-3.7c-1.5-0.3-2.9-0.2-4.4,0c-0.4,0.1-0.5,0.2-0.5,0.6c0,2.5,0,5.1,0,7.6
			C24.3,33,24.3,33.3,24.3,33.8z"/>
		<path d="M56.4,28.5c-0.4,1.7-0.8,3.3-1.2,4.8c-1.1-0.3-2.2-0.7-3.2-1c-1-0.3-2.1-0.3-3.1,0c-0.7,0.2-1.2,0.7-1.3,1.5
			c-0.1,0.8,0.3,1.3,0.9,1.6c0.8,0.4,1.6,0.7,2.5,1.1c1.3,0.5,2.5,1,3.6,1.8c3.7,2.5,3.6,8.2,0.1,10.7c-1.4,1-3.1,1.6-4.8,1.8
			c-3,0.4-6,0.1-8.8-1c-1-0.4-1-0.4-0.7-1.4c0.3-1.2,0.6-2.5,0.9-3.7c0-0.1,0.1-0.3,0.1-0.4c1.4,0.8,2.8,1.2,4.4,1.5
			c1.1,0.2,2.2,0.3,3.3,0c0.7-0.2,1.2-0.6,1.4-1.4c0.1-0.8-0.1-1.5-0.9-1.9c-0.6-0.3-1.3-0.6-1.9-0.9c-1.4-0.6-2.9-1.1-4.2-2
			c-3.9-2.7-3.3-7.5-0.6-10c1.5-1.4,3.3-2,5.2-2.3c2.3-0.3,4.5,0,6.7,0.6C55.3,28.1,55.8,28.3,56.4,28.5z"/>
	</g>
</g>
</svg>
