<?xml version="1.0" encoding="utf-8"?>
<!-- Generator: Adobe Illustrator 21.1.0, SVG Export Plug-In . SVG Version: 6.00 Build 0)  -->
<svg version="1.1" id="Layer_1" xmlns="http://www.w3.org/2000/svg" xmlns:xlink="http://www.w3.org/1999/xlink" x="0px" y="0px"
	 viewBox="0 0 72 72" style="enable-background:new 0 0 72 72;" xml:space="preserve">
<g>
	<g>
		<path d="M9,10.9c-0.3,1.2-0.6,2.4-0.9,3.6C6.2,24.1,8,33,13.2,41.2c7,11,16.9,17.9,29.8,20c9.6,1.6,18.4-0.5,26.4-6.1
			c0.3-0.2,0.7-0.5,1.1-0.6c-0.3,0.5-0.5,0.9-0.8,1.4c-1.9,3-3.7,6-6.4,8.5c-4.9,4.4-10.7,6.9-17.2,7.3c-13,0.9-24.2-3.4-33.7-12.3
			c-6-5.7-10.2-12.6-11.7-20.9c-1.5-8.2-0.3-15.9,4.7-22.8c1.2-1.6,2.3-3.3,3.5-4.9C8.9,10.8,9,10.8,9,10.9z"/>
		<path d="M71.1,35.4c-1.7,3.7-4.2,6.6-7.4,8.9c-4.5,3.2-9.5,4.1-14.7,3.3c-12.8-1.9-21.4-9.2-25.5-21.4c-2.7-8.1-0.8-15.5,5.1-21.8
			c0.1-0.1,0.1-0.1,0.2-0.2c-0.3,1.4-0.6,2.8-0.7,4.1c-1,8.2,1.6,15.3,7.1,21.3c5,5.5,11.3,8.9,18.7,9.9c5.9,0.8,11.5-0.5,16.5-3.7
			C70.6,35.7,70.8,35.6,71.1,35.4z"/>
		<path d="M44.7,0.5c-1.2,6.6,1.2,12,5.8,16.5c2.9,2.8,6.4,4.6,10.4,5.3c3.7,0.6,7.2-0.2,10.4-2.2c0.2-0.1,0.3-0.2,0.7-0.4
			c-1.4,3.6-3.7,6-7.2,7.1c-3.3,1-6.6,0.7-9.8-0.3c-5.6-1.9-10.1-5.2-12.8-10.6c-2.7-5.4-1.6-10.8,2.4-15.3
			C44.5,0.6,44.6,0.6,44.7,0.5z"/>
	</g>
</g>
</svg>
