<?xml version="1.0" encoding="utf-8"?>
<!-- Generator: Adobe Illustrator 21.1.0, SVG Export Plug-In . SVG Version: 6.00 Build 0)  -->
<svg version="1.1" id="Layer_1" xmlns="http://www.w3.org/2000/svg" xmlns:xlink="http://www.w3.org/1999/xlink" x="0px" y="0px"
	 viewBox="0 0 512 512" style="enable-background:new 0 0 512 512;" xml:space="preserve">
<style type="text/css">
	.st0{fill:#1C67A8;}
</style>
<path class="st0" d="M479,134.5H33c-3.6,0-6.5-2.9-6.5-6.5s2.9-6.5,6.5-6.5h446c3.6,0,6.5,2.9,6.5,6.5S482.6,134.5,479,134.5z"/>
<path class="st0" d="M479,262.5H33c-3.6,0-6.5-2.9-6.5-6.5s2.9-6.5,6.5-6.5h446c3.6,0,6.5,2.9,6.5,6.5S482.6,262.5,479,262.5z"/>
<path class="st0" d="M479,390.5H33c-3.6,0-6.5-2.9-6.5-6.5s2.9-6.5,6.5-6.5h446c3.6,0,6.5,2.9,6.5,6.5S482.6,390.5,479,390.5z"/>
</svg>
